<svg version="1.1" id="Layer_1" xmlns="http://www.w3.org/2000/svg" xmlns:xlink="http://www.w3.org/1999/xlink" x="0px" y="0px"
	 width="100%" viewBox="0 0 500 500" enable-background="new 0 0 500 500" xml:space="preserve">
<path fill="#FFFFFF" opacity="1.000000" stroke="none" 
	d="
M277.000000,501.000000 
	C184.666687,501.000000 92.833374,501.000000 1.000049,501.000000 
	C1.000033,334.333405 1.000033,167.666794 1.000016,1.000139 
	C167.666565,1.000093 334.333130,1.000093 500.999756,1.000046 
	C500.999847,167.666519 500.999847,334.333038 500.999939,500.999786 
	C426.500000,501.000000 352.000000,501.000000 277.000000,501.000000 
M325.271820,342.232117 
	C346.450439,345.164795 365.877136,340.250092 382.739166,327.447876 
	C408.667938,307.761871 418.891785,281.156036 413.724915,249.121994 
	C410.818848,231.104675 403.353485,214.873077 388.865112,203.086517 
	C369.988556,187.730118 348.114075,182.621567 324.199371,186.566086 
	C303.473083,189.984726 286.240570,200.641846 270.605743,213.951035 
	C260.240570,222.774399 250.583694,232.429810 239.653488,242.602722 
	C234.314285,236.928436 229.056870,230.912598 223.347031,225.362198 
	C211.495590,213.841660 198.986542,203.064972 184.256760,195.311203 
	C162.974426,184.108154 140.729538,181.991318 118.171875,190.532837 
	C79.652092,205.118454 59.728992,242.468445 68.251488,282.915833 
	C75.766159,318.580078 104.062111,342.109650 140.493118,343.085022 
	C163.333435,343.696503 183.481705,335.917328 201.068573,322.120941 
	C213.476059,312.387665 224.630676,301.057220 236.343460,290.438568 
	C237.764038,289.150696 239.177185,287.854675 241.570480,285.671417 
	C243.077148,287.731232 244.042862,289.573730 245.473480,290.923431 
	C255.525635,300.407043 265.323090,310.204926 275.877228,319.101227 
	C289.938019,330.953400 305.773743,339.612915 325.271820,342.232117 
M385.858368,53.307995 
	C378.177612,50.477856 372.110992,52.358730 368.629272,58.649689 
	C365.353058,64.569328 366.896179,71.177353 372.991943,75.824074 
	C382.128326,82.788582 391.431702,89.533562 400.624603,96.424492 
	C406.947449,101.164070 406.986084,106.245918 400.750031,110.923134 
	C391.958221,117.517227 383.043182,123.950577 374.360107,130.683868 
	C371.934387,132.564896 369.534241,134.955734 368.183350,137.645554 
	C365.475922,143.036514 367.286102,149.210953 371.895020,152.914566 
	C376.830078,156.880264 383.055054,156.787369 388.931610,152.404480 
	C405.750336,139.860672 422.512085,127.240509 439.296783,114.651077 
	C446.809296,109.016319 446.887146,98.727707 439.442749,93.008003 
	C436.538055,90.776253 433.613251,88.569954 430.670593,86.388435 
	C415.962921,75.484886 401.246277,64.593437 385.858368,53.307995 
z"/>
<path fill="#F8726C" opacity="1.000000" stroke="none" 
	d="
M324.833923,342.173492 
	C305.773743,339.612915 289.938019,330.953400 275.877228,319.101227 
	C265.323090,310.204926 255.525635,300.407043 245.473480,290.923431 
	C244.042862,289.573730 243.077148,287.731232 241.570480,285.671417 
	C239.177185,287.854675 237.764038,289.150696 236.343460,290.438568 
	C224.630676,301.057220 213.476059,312.387665 201.068573,322.120941 
	C183.481705,335.917328 163.333435,343.696503 140.493118,343.085022 
	C104.062111,342.109650 75.766159,318.580078 68.251488,282.915833 
	C59.728992,242.468445 79.652092,205.118454 118.171875,190.532837 
	C140.729538,181.991318 162.974426,184.108154 184.256760,195.311203 
	C198.986542,203.064972 211.495590,213.841660 223.347031,225.362198 
	C229.056870,230.912598 234.314285,236.928436 239.653488,242.602722 
	C250.583694,232.429810 260.240570,222.774399 270.605743,213.951035 
	C286.240570,200.641846 303.473083,189.984726 324.199371,186.566086 
	C348.114075,182.621567 369.988556,187.730118 388.865112,203.086517 
	C403.353485,214.873077 410.818848,231.104675 413.724915,249.121994 
	C418.891785,281.156036 408.667938,307.761871 382.739166,327.447876 
	C365.877136,340.250092 346.450439,345.164795 324.833923,342.173492 
M355.616730,306.203339 
	C370.977020,299.174561 383.224792,280.357422 381.222565,259.832855 
	C378.296234,229.835083 353.668884,211.703339 324.404999,218.980484 
	C297.743866,225.610367 280.446228,245.322693 261.732788,264.132660 
	C266.927673,269.246429 271.446472,273.863190 276.146454,278.287476 
	C287.179779,288.673645 298.087433,299.242828 312.087982,305.758942 
	C326.262360,312.355927 340.535400,313.312256 355.616730,306.203339 
M150.051163,310.855621 
	C180.697922,306.605011 199.103836,284.414337 218.121063,266.092072 
	C210.243729,257.418121 203.406052,249.193115 195.824158,241.723587 
	C187.132614,233.160889 177.278625,225.905289 165.826355,221.386734 
	C149.546844,214.963562 133.679611,216.168610 119.259880,226.328384 
	C101.797852,238.631683 95.825172,260.162567 102.870789,281.552277 
	C108.440887,298.462524 124.319839,312.978882 150.051163,310.855621 
z"/>
<path fill="#F8726C" opacity="1.000000" stroke="none" 
	d="
M386.195557,53.502853 
	C401.246277,64.593437 415.962921,75.484886 430.670593,86.388435 
	C433.613251,88.569954 436.538055,90.776253 439.442749,93.008003 
	C446.887146,98.727707 446.809296,109.016319 439.296783,114.651077 
	C422.512085,127.240509 405.750336,139.860672 388.931610,152.404480 
	C383.055054,156.787369 376.830078,156.880264 371.895020,152.914566 
	C367.286102,149.210953 365.475922,143.036514 368.183350,137.645554 
	C369.534241,134.955734 371.934387,132.564896 374.360107,130.683868 
	C383.043182,123.950577 391.958221,117.517227 400.750031,110.923134 
	C406.986084,106.245918 406.947449,101.164070 400.624603,96.424492 
	C391.431702,89.533562 382.128326,82.788582 372.991943,75.824074 
	C366.896179,71.177353 365.353058,64.569328 368.629272,58.649689 
	C372.110992,52.358730 378.177612,50.477856 386.195557,53.502853 
z"/>
<path fill="#FFFEFE" opacity="1.000000" stroke="none" 
	d="
M355.287109,306.385193 
	C340.535400,313.312256 326.262360,312.355927 312.087982,305.758942 
	C298.087433,299.242828 287.179779,288.673645 276.146454,278.287476 
	C271.446472,273.863190 266.927673,269.246429 261.732788,264.132660 
	C280.446228,245.322693 297.743866,225.610367 324.404999,218.980484 
	C353.668884,211.703339 378.296234,229.835083 381.222565,259.832855 
	C383.224792,280.357422 370.977020,299.174561 355.287109,306.385193 
z"/>
<path fill="#FFFEFE" opacity="1.000000" stroke="none" 
	d="
M149.593613,310.876801 
	C124.319839,312.978882 108.440887,298.462524 102.870789,281.552277 
	C95.825172,260.162567 101.797852,238.631683 119.259880,226.328384 
	C133.679611,216.168610 149.546844,214.963562 165.826355,221.386734 
	C177.278625,225.905289 187.132614,233.160889 195.824158,241.723587 
	C203.406052,249.193115 210.243729,257.418121 218.121063,266.092072 
	C199.103836,284.414337 180.697922,306.605011 149.593613,310.876801 
z"/>
</svg>