<svg version="1.1" id="Layer_1" xmlns="http://www.w3.org/2000/svg" xmlns:xlink="http://www.w3.org/1999/xlink" x="0px" y="0px"
	 width="100%" viewBox="0 0 500 500" enable-background="new 0 0 500 500" xml:space="preserve">
<path fill="#F8716B" opacity="1.000000" stroke="none" 
	d="
M1.000001,478.000000 
	C1.000000,326.975922 1.000000,175.951843 1.308665,24.291370 
	C5.288303,11.847624 13.421151,4.645468 25.000000,1.000000 
	C175.357407,1.000000 325.714813,1.000000 476.711914,1.318933 
	C485.200409,3.561473 491.624847,7.688161 495.965576,14.526401 
	C498.027130,17.774206 499.345154,21.494019 501.000000,25.000000 
	C501.000000,175.690750 501.000000,326.381500 500.674683,477.681366 
	C496.880798,483.610229 494.066620,489.564453 489.727356,494.040009 
	C486.512299,497.356110 481.314545,498.749908 477.000000,501.000000 
	C326.309265,501.000000 175.618515,501.000000 24.285183,500.695374 
	C14.450293,497.568542 7.657636,491.955994 3.571526,483.173828 
	C2.759379,481.428284 1.859451,479.723541 1.000001,478.000000 
M321.979980,320.483551 
	C328.898071,313.227539 335.235962,305.615845 339.244049,296.227356 
	C346.865234,278.375458 342.259888,258.423645 327.376434,246.000885 
	C313.274994,234.230850 291.266724,233.291306 276.089081,243.811401 
	C261.417267,253.980881 255.550766,273.555542 261.652924,291.980743 
	C265.526611,303.677277 273.099365,312.927490 281.444885,321.619507 
	C284.043976,324.326447 287.044037,326.648438 290.708984,329.899292 
	C285.378937,334.856110 280.848267,338.563904 276.916809,342.824585 
	C266.876434,353.705902 258.905853,365.847900 259.411285,381.357513 
	C259.987091,399.026154 268.377960,412.418854 284.645355,419.548431 
	C300.472839,426.485229 316.012573,423.961761 329.159882,413.031067 
	C342.864716,401.636871 345.581238,386.279541 341.220123,369.467041 
	C337.831604,356.403870 329.211121,346.654572 320.310364,337.123596 
	C317.976196,334.624176 315.569611,332.192383 312.378296,328.880676 
	C315.695923,326.008423 318.592438,323.500763 321.979980,320.483551 
M372.246582,75.216133 
	C381.579834,82.186554 390.925629,89.140327 400.242218,96.132935 
	C407.118988,101.294304 407.151642,106.162148 400.357666,111.242012 
	C391.294525,118.018570 382.152100,124.690536 373.151062,131.548309 
	C366.411499,136.683090 365.089844,144.149216 369.564026,150.340347 
	C374.011505,156.494537 381.780945,157.626434 388.541321,152.626144 
	C405.935242,139.760712 423.234863,126.765991 440.466400,113.683662 
	C446.435120,109.152168 446.491180,98.459824 440.531494,93.919640 
	C423.454071,80.909836 406.288666,68.013451 389.039520,55.232204 
	C382.265045,50.212490 375.156830,50.862354 370.177307,56.433014 
	C365.472198,61.696735 366.019073,68.244133 372.246582,75.216133 
M199.331238,349.533051 
	C199.331238,370.920166 199.331238,392.307251 199.331238,413.615479 
	C204.935303,413.615479 209.662354,413.615479 214.922104,413.615479 
	C214.922104,403.985657 214.922104,394.740204 214.922104,385.662659 
	C219.743744,384.070343 222.436218,385.254089 224.450592,389.609772 
	C227.796783,396.845306 231.734039,403.813324 235.586212,410.803741 
	C236.291763,412.084045 237.718536,413.755829 238.911911,413.840271 
	C243.784836,414.185059 248.696396,413.984009 254.484756,413.984009 
	C248.440979,403.197327 242.876511,393.266083 237.170212,383.081696 
	C238.764664,382.203552 239.905045,381.604309 241.017990,380.957886 
	C248.729523,376.478882 253.059723,367.106445 251.687759,357.889435 
	C250.173157,347.714111 244.133316,339.821320 234.626816,338.937622 
	C223.155930,337.871368 211.510315,338.685120 199.331543,338.685120 
	C199.331543,341.964966 199.331543,345.256042 199.331238,349.533051 
M376.491547,226.051865 
	C369.889160,226.051865 363.286804,226.051865 356.523926,226.051865 
	C356.523926,251.684525 356.523926,276.682526 356.523926,301.817566 
	C361.557739,301.817566 366.183746,301.817566 371.538208,301.817566 
	C371.538208,292.267975 371.538208,282.886047 371.538208,273.759247 
	C376.595856,271.969757 379.213684,273.366058 381.211334,277.632629 
	C384.592072,284.853180 388.491180,291.836700 392.342621,298.826080 
	C393.047852,300.105927 394.505310,301.751587 395.713776,301.836945 
	C400.584351,302.180878 405.493439,301.979401 411.180542,301.979401 
	C405.171295,291.203339 399.625031,281.257538 393.933075,271.050476 
	C395.318726,270.288513 396.305573,269.755951 397.283081,269.206726 
	C406.137268,264.232025 410.234009,254.327942 407.934235,243.465012 
	C405.848419,233.612717 398.254425,226.965515 387.964264,226.198822 
	C384.487335,225.939758 380.979919,226.089157 376.491547,226.051865 
M248.640350,227.020432 
	C243.819427,226.583557 238.998520,226.146667 233.558289,225.653671 
	C233.558289,228.421219 233.559235,230.221039 233.558121,232.020859 
	C233.553879,238.852783 233.689545,245.690247 233.420151,252.511719 
	C233.369156,253.802689 231.761536,256.068695 230.782272,256.118530 
	C224.362503,256.445282 217.918045,256.286865 210.861786,256.286865 
	C210.861786,245.914352 210.861786,236.186218 210.861786,226.494873 
	C205.505600,226.494873 200.797653,226.494873 196.171539,226.494873 
	C196.171539,251.835709 196.171539,276.731812 196.171539,301.564941 
	C201.307785,301.564941 206.017975,301.564941 211.159927,301.564941 
	C211.159927,291.526367 211.159927,281.924530 211.159927,271.804688 
	C217.061127,271.804688 222.536438,272.070557 227.972092,271.720551 
	C232.317749,271.440704 233.844284,272.771820 233.654022,277.264099 
	C233.310501,285.375214 233.556824,293.511292 233.556824,301.654663 
	C238.956894,301.654663 243.699738,301.654663 248.838623,301.654663 
	C248.838623,276.846466 248.838623,252.387131 248.640350,227.020432 
M102.584473,368.983887 
	C100.748985,368.199219 98.449158,367.855591 97.186707,366.526611 
	C95.287209,364.526947 93.131577,361.948792 92.845337,359.417480 
	C92.324013,354.807404 96.447884,351.807037 102.178459,352.338074 
	C106.562050,352.744293 110.874588,353.917053 115.217567,354.748627 
	C117.788055,339.202271 120.477684,340.190857 103.671463,337.652252 
	C103.178009,337.577698 102.678276,337.533356 102.179764,337.505493 
	C90.479393,336.851227 81.075897,343.135895 78.062721,353.619293 
	C74.902290,364.615021 78.735283,373.397705 89.622292,379.409180 
	C93.248215,381.411285 97.184479,382.853882 100.988876,384.529572 
	C104.947456,386.273132 108.149612,388.751953 106.947792,393.592834 
	C105.844574,398.036469 102.015915,399.604889 97.995667,399.044373 
	C91.354805,398.118530 84.816704,396.455536 77.729019,394.999176 
	C77.284348,398.367310 76.567589,402.759125 76.230499,407.179871 
	C76.158661,408.121918 77.241798,409.668701 78.175461,410.091095 
	C87.830765,414.459076 97.798836,416.633850 108.195686,412.960724 
	C116.475235,410.035583 121.234512,403.950928 122.620010,395.360260 
	C123.933167,387.218079 121.106155,380.490906 114.514557,375.670105 
	C111.056206,373.140808 107.051559,371.358429 102.584473,368.983887 
M159.848572,355.061096 
	C167.672882,351.168152 175.583450,352.461060 183.789932,355.255585 
	C184.267334,351.263336 184.414444,347.754730 185.164215,344.380005 
	C185.975479,340.728516 184.487762,339.418610 181.187149,338.491943 
	C165.129288,333.983429 147.477493,339.971283 138.681396,353.122406 
	C129.235641,367.244904 129.876617,387.254272 140.197617,400.454041 
	C149.813339,412.751831 169.040070,417.862183 184.220551,412.021881 
	C185.347443,411.588318 186.921524,410.118103 186.873688,409.203735 
	C186.643738,404.807129 185.927963,400.435944 185.379715,396.015900 
	C164.523956,400.297028 155.075485,397.311646 150.086365,385.247681 
	C145.477768,374.103760 149.163223,362.017456 159.848572,355.061096 
M422.496887,393.379089 
	C422.496887,375.090851 422.496887,356.802643 422.496887,338.394775 
	C417.105530,338.394775 412.373260,338.394775 407.415100,338.394775 
	C407.415100,363.637695 407.415100,388.536682 407.415100,413.721069 
	C420.457947,413.721069 433.203735,413.721069 446.288239,413.721069 
	C446.288239,408.818024 446.288239,404.087708 446.288239,398.847137 
	C439.648468,398.847137 433.340637,398.683228 427.047058,398.911713 
	C423.553711,399.038513 422.060059,397.823486 422.496887,393.379089 
M354.997192,400.489929 
	C354.997192,404.903992 354.997192,409.318054 354.997192,413.566467 
	C368.512573,413.566467 381.220367,413.566467 393.863739,413.566467 
	C393.863739,408.542542 393.863739,403.958771 393.863739,398.668091 
	C385.824646,398.668091 378.118805,398.668091 369.839294,398.668091 
	C369.839294,378.089752 369.839294,358.221619 369.839294,338.381653 
	C364.639221,338.381653 360.057159,338.381653 354.997192,338.381653 
	C354.997192,358.964630 354.997192,379.229248 354.997192,400.489929 
M421.132568,228.862061 
	C421.132568,253.095535 421.132568,277.329010 421.132568,301.678955 
	C426.547089,301.678955 431.269806,301.678955 436.028809,301.678955 
	C436.028809,276.350372 436.028809,251.352127 436.028809,226.063965 
	C431.749573,226.063965 427.927429,225.935883 424.124512,226.149734 
	C423.113495,226.206604 422.161499,227.312820 421.132568,228.862061 
z"/>
<path fill="#FFFDFC" opacity="1.000000" stroke="none" 
	d="
M501.000000,24.531309 
	C499.345154,21.494019 498.027130,17.774206 495.965576,14.526401 
	C491.624847,7.688161 485.200409,3.561473 477.175781,1.318933 
	C484.926331,1.000000 492.852692,1.000000 501.000000,1.000000 
	C501.000000,8.686132 501.000000,16.374374 501.000000,24.531309 
z"/>
<path fill="#FFFDFD" opacity="1.000000" stroke="none" 
	d="
M477.468689,501.000000 
	C481.314545,498.749908 486.512299,497.356110 489.727356,494.040009 
	C494.066620,489.564453 496.880798,483.610229 500.674683,478.145264 
	C501.000000,485.594543 501.000000,493.189117 501.000000,501.000000 
	C493.313812,501.000000 485.625580,501.000000 477.468689,501.000000 
z"/>
<path fill="#FFFCFC" opacity="1.000000" stroke="none" 
	d="
M24.531307,1.000000 
	C13.421151,4.645468 5.288303,11.847624 1.308665,23.827488 
	C1.000000,16.405445 1.000000,8.810891 1.000000,1.000000 
	C8.686191,1.000000 16.374403,1.000000 24.531307,1.000000 
z"/>
<path fill="#FFFCFC" opacity="1.000000" stroke="none" 
	d="
M1.000001,478.468750 
	C1.859451,479.723541 2.759379,481.428284 3.571526,483.173828 
	C7.657636,491.955994 14.450293,497.568542 23.821301,500.695374 
	C16.407045,501.000000 8.814093,501.000000 1.000000,501.000000 
	C1.000000,493.647308 1.000000,486.292389 1.000001,478.468750 
z"/>
<path fill="#FFFDFD" opacity="1.000000" stroke="none" 
	d="
M321.734497,320.738312 
	C318.592438,323.500763 315.695923,326.008423 312.378296,328.880676 
	C315.569611,332.192383 317.976196,334.624176 320.310364,337.123596 
	C329.211121,346.654572 337.831604,356.403870 341.220123,369.467041 
	C345.581238,386.279541 342.864716,401.636871 329.159882,413.031067 
	C316.012573,423.961761 300.472839,426.485229 284.645355,419.548431 
	C268.377960,412.418854 259.987091,399.026154 259.411285,381.357513 
	C258.905853,365.847900 266.876434,353.705902 276.916809,342.824585 
	C280.848267,338.563904 285.378937,334.856110 290.708984,329.899292 
	C287.044037,326.648438 284.043976,324.326447 281.444885,321.619507 
	C273.099365,312.927490 265.526611,303.677277 261.652924,291.980743 
	C255.550766,273.555542 261.417267,253.980881 276.089081,243.811401 
	C291.266724,233.291306 313.274994,234.230850 327.376434,246.000885 
	C342.259888,258.423645 346.865234,278.375458 339.244049,296.227356 
	C335.235962,305.615845 328.898071,313.227539 321.734497,320.738312 
M318.795715,398.340485 
	C325.221161,392.124664 327.357971,384.362579 325.531860,375.924500 
	C322.336304,361.158325 311.772095,351.417419 300.412445,340.470123 
	C293.201141,349.670227 285.632233,357.737244 279.959991,366.969543 
	C273.024597,378.257812 276.026550,391.582703 285.592896,399.441376 
	C295.023254,407.188293 307.660522,406.948761 318.795715,398.340485 
M320.755981,296.164307 
	C322.269684,292.668060 324.212982,289.290161 325.214752,285.652924 
	C327.973450,275.636841 323.663910,264.589722 315.180603,258.873383 
	C306.236206,252.846359 294.076782,253.234604 285.198517,259.830658 
	C277.463135,265.577606 274.424622,276.034546 277.585785,286.364319 
	C281.663452,299.689026 291.369904,308.791534 301.616669,318.758789 
	C308.096710,311.147339 314.218597,303.956635 320.755981,296.164307 
z"/>
<path fill="#FFFEFE" opacity="1.000000" stroke="none" 
	d="
M371.976440,74.976715 
	C366.019073,68.244133 365.472198,61.696735 370.177307,56.433014 
	C375.156830,50.862354 382.265045,50.212490 389.039520,55.232204 
	C406.288666,68.013451 423.454071,80.909836 440.531494,93.919640 
	C446.491180,98.459824 446.435120,109.152168 440.466400,113.683662 
	C423.234863,126.765991 405.935242,139.760712 388.541321,152.626144 
	C381.780945,157.626434 374.011505,156.494537 369.564026,150.340347 
	C365.089844,144.149216 366.411499,136.683090 373.151062,131.548309 
	C382.152100,124.690536 391.294525,118.018570 400.357666,111.242012 
	C407.151642,106.162148 407.118988,101.294304 400.242218,96.132935 
	C390.925629,89.140327 381.579834,82.186554 371.976440,74.976715 
z"/>
<path fill="#FFFBFB" opacity="1.000000" stroke="none" 
	d="
M199.331390,349.040100 
	C199.331543,345.256042 199.331543,341.964966 199.331543,338.685120 
	C211.510315,338.685120 223.155930,337.871368 234.626816,338.937622 
	C244.133316,339.821320 250.173157,347.714111 251.687759,357.889435 
	C253.059723,367.106445 248.729523,376.478882 241.017990,380.957886 
	C239.905045,381.604309 238.764664,382.203552 237.170212,383.081696 
	C242.876511,393.266083 248.440979,403.197327 254.484756,413.984009 
	C248.696396,413.984009 243.784836,414.185059 238.911911,413.840271 
	C237.718536,413.755829 236.291763,412.084045 235.586212,410.803741 
	C231.734039,403.813324 227.796783,396.845306 224.450592,389.609772 
	C222.436218,385.254089 219.743744,384.070343 214.922104,385.662659 
	C214.922104,394.740204 214.922104,403.985657 214.922104,413.615479 
	C209.662354,413.615479 204.935303,413.615479 199.331238,413.615479 
	C199.331238,392.307251 199.331238,370.920166 199.331390,349.040100 
M231.777191,354.377960 
	C226.276642,353.909088 220.776093,353.440216 215.238342,352.968170 
	C215.238342,359.375214 215.238342,364.587372 215.238342,370.154510 
	C218.981277,370.154510 222.289154,370.083771 225.592697,370.173065 
	C229.439041,370.277039 233.051041,369.916901 234.709015,365.734558 
	C236.325668,361.656433 235.822205,357.919434 231.777191,354.377960 
z"/>
<path fill="#FFFDFD" opacity="1.000000" stroke="none" 
	d="
M376.989014,226.051880 
	C380.979919,226.089157 384.487335,225.939758 387.964264,226.198822 
	C398.254425,226.965515 405.848419,233.612717 407.934235,243.465012 
	C410.234009,254.327942 406.137268,264.232025 397.283081,269.206726 
	C396.305573,269.755951 395.318726,270.288513 393.933075,271.050476 
	C399.625031,281.257538 405.171295,291.203339 411.180542,301.979401 
	C405.493439,301.979401 400.584351,302.180878 395.713776,301.836945 
	C394.505310,301.751587 393.047852,300.105927 392.342621,298.826080 
	C388.491180,291.836700 384.592072,284.853180 381.211334,277.632629 
	C379.213684,273.366058 376.595856,271.969757 371.538208,273.759247 
	C371.538208,282.886047 371.538208,292.267975 371.538208,301.817566 
	C366.183746,301.817566 361.557739,301.817566 356.523926,301.817566 
	C356.523926,276.682526 356.523926,251.684525 356.523926,226.051865 
	C363.286804,226.051865 369.889160,226.051865 376.989014,226.051880 
M376.662109,258.176910 
	C379.477997,258.159546 382.303741,258.285400 385.107483,258.092072 
	C389.570770,257.784241 392.123932,254.858200 392.283447,250.175659 
	C392.443024,245.491440 390.118927,242.344971 385.866974,241.488770 
	C373.230164,238.944153 371.216339,240.558777 371.376160,253.106689 
	C371.380371,253.437973 371.416565,253.774185 371.374420,254.099884 
	C370.936951,257.480133 372.626556,258.576965 376.662109,258.176910 
z"/>
<path fill="#FFFDFD" opacity="1.000000" stroke="none" 
	d="
M248.739487,227.474121 
	C248.838623,252.387131 248.838623,276.846466 248.838623,301.654663 
	C243.699738,301.654663 238.956894,301.654663 233.556824,301.654663 
	C233.556824,293.511292 233.310501,285.375214 233.654022,277.264099 
	C233.844284,272.771820 232.317749,271.440704 227.972092,271.720551 
	C222.536438,272.070557 217.061127,271.804688 211.159927,271.804688 
	C211.159927,281.924530 211.159927,291.526367 211.159927,301.564941 
	C206.017975,301.564941 201.307785,301.564941 196.171539,301.564941 
	C196.171539,276.731812 196.171539,251.835709 196.171539,226.494873 
	C200.797653,226.494873 205.505600,226.494873 210.861786,226.494873 
	C210.861786,236.186218 210.861786,245.914352 210.861786,256.286865 
	C217.918045,256.286865 224.362503,256.445282 230.782272,256.118530 
	C231.761536,256.068695 233.369156,253.802689 233.420151,252.511719 
	C233.689545,245.690247 233.553879,238.852783 233.558121,232.020859 
	C233.559235,230.221039 233.558289,228.421219 233.558289,225.653671 
	C238.998520,226.146667 243.819427,226.583557 248.739487,227.474121 
z"/>
<path fill="#FFFCFC" opacity="1.000000" stroke="none" 
	d="
M102.939041,369.111328 
	C107.051559,371.358429 111.056206,373.140808 114.514557,375.670105 
	C121.106155,380.490906 123.933167,387.218079 122.620010,395.360260 
	C121.234512,403.950928 116.475235,410.035583 108.195686,412.960724 
	C97.798836,416.633850 87.830765,414.459076 78.175461,410.091095 
	C77.241798,409.668701 76.158661,408.121918 76.230499,407.179871 
	C76.567589,402.759125 77.284348,398.367310 77.729019,394.999176 
	C84.816704,396.455536 91.354805,398.118530 97.995667,399.044373 
	C102.015915,399.604889 105.844574,398.036469 106.947792,393.592834 
	C108.149612,388.751953 104.947456,386.273132 100.988876,384.529572 
	C97.184479,382.853882 93.248215,381.411285 89.622292,379.409180 
	C78.735283,373.397705 74.902290,364.615021 78.062721,353.619293 
	C81.075897,343.135895 90.479393,336.851227 102.179764,337.505493 
	C102.678276,337.533356 103.178009,337.577698 103.671463,337.652252 
	C120.477684,340.190857 117.788055,339.202271 115.217567,354.748627 
	C110.874588,353.917053 106.562050,352.744293 102.178459,352.338074 
	C96.447884,351.807037 92.324013,354.807404 92.845337,359.417480 
	C93.131577,361.948792 95.287209,364.526947 97.186707,366.526611 
	C98.449158,367.855591 100.748985,368.199219 102.939041,369.111328 
z"/>
<path fill="#FFFCFC" opacity="1.000000" stroke="none" 
	d="
M159.513550,355.245789 
	C149.163223,362.017456 145.477768,374.103760 150.086365,385.247681 
	C155.075485,397.311646 164.523956,400.297028 185.379715,396.015900 
	C185.927963,400.435944 186.643738,404.807129 186.873688,409.203735 
	C186.921524,410.118103 185.347443,411.588318 184.220551,412.021881 
	C169.040070,417.862183 149.813339,412.751831 140.197617,400.454041 
	C129.876617,387.254272 129.235641,367.244904 138.681396,353.122406 
	C147.477493,339.971283 165.129288,333.983429 181.187149,338.491943 
	C184.487762,339.418610 185.975479,340.728516 185.164215,344.380005 
	C184.414444,347.754730 184.267334,351.263336 183.789932,355.255585 
	C175.583450,352.461060 167.672882,351.168152 159.513550,355.245789 
z"/>
<path fill="#FFFDFD" opacity="1.000000" stroke="none" 
	d="
M422.497864,393.864197 
	C422.060059,397.823486 423.553711,399.038513 427.047058,398.911713 
	C433.340637,398.683228 439.648468,398.847137 446.288239,398.847137 
	C446.288239,404.087708 446.288239,408.818024 446.288239,413.721069 
	C433.203735,413.721069 420.457947,413.721069 407.415100,413.721069 
	C407.415100,388.536682 407.415100,363.637695 407.415100,338.394775 
	C412.373260,338.394775 417.105530,338.394775 422.496887,338.394775 
	C422.496887,356.802643 422.496887,375.090851 422.497864,393.864197 
z"/>
<path fill="#FFFFFF" opacity="1.000000" stroke="none" 
	d="
M354.997192,399.991913 
	C354.997192,379.229248 354.997192,358.964630 354.997192,338.381653 
	C360.057159,338.381653 364.639221,338.381653 369.839294,338.381653 
	C369.839294,358.221619 369.839294,378.089752 369.839294,398.668091 
	C378.118805,398.668091 385.824646,398.668091 393.863739,398.668091 
	C393.863739,403.958771 393.863739,408.542542 393.863739,413.566467 
	C381.220367,413.566467 368.512573,413.566467 354.997192,413.566467 
	C354.997192,409.318054 354.997192,404.903992 354.997192,399.991913 
z"/>
<path fill="#FFFDFD" opacity="1.000000" stroke="none" 
	d="
M421.157471,228.399658 
	C422.161499,227.312820 423.113495,226.206604 424.124512,226.149734 
	C427.927429,225.935883 431.749573,226.063965 436.028809,226.063965 
	C436.028809,251.352127 436.028809,276.350372 436.028809,301.678955 
	C431.269806,301.678955 426.547089,301.678955 421.132568,301.678955 
	C421.132568,277.329010 421.132568,253.095535 421.157471,228.399658 
z"/>
<path fill="#F8726C" opacity="1.000000" stroke="none" 
	d="
M318.525146,398.581421 
	C307.660522,406.948761 295.023254,407.188293 285.592896,399.441376 
	C276.026550,391.582703 273.024597,378.257812 279.959991,366.969543 
	C285.632233,357.737244 293.201141,349.670227 300.412445,340.470123 
	C311.772095,351.417419 322.336304,361.158325 325.531860,375.924500 
	C327.357971,384.362579 325.221161,392.124664 318.525146,398.581421 
z"/>
<path fill="#F8726C" opacity="1.000000" stroke="none" 
	d="
M320.548218,296.465088 
	C314.218597,303.956635 308.096710,311.147339 301.616669,318.758789 
	C291.369904,308.791534 281.663452,299.689026 277.585785,286.364319 
	C274.424622,276.034546 277.463135,265.577606 285.198517,259.830658 
	C294.076782,253.234604 306.236206,252.846359 315.180603,258.873383 
	C323.663910,264.589722 327.973450,275.636841 325.214752,285.652924 
	C324.212982,289.290161 322.269684,292.668060 320.548218,296.465088 
z"/>
<path fill="#F8746E" opacity="1.000000" stroke="none" 
	d="
M232.100891,354.609863 
	C235.822205,357.919434 236.325668,361.656433 234.709015,365.734558 
	C233.051041,369.916901 229.439041,370.277039 225.592697,370.173065 
	C222.289154,370.083771 218.981277,370.154510 215.238342,370.154510 
	C215.238342,364.587372 215.238342,359.375214 215.238342,352.968170 
	C220.776093,353.440216 226.276642,353.909088 232.100891,354.609863 
z"/>
<path fill="#F87772" opacity="1.000000" stroke="none" 
	d="
M376.193665,258.176361 
	C372.626556,258.576965 370.936951,257.480133 371.374420,254.099884 
	C371.416565,253.774185 371.380371,253.437973 371.376160,253.106689 
	C371.216339,240.558777 373.230164,238.944153 385.866974,241.488770 
	C390.118927,242.344971 392.443024,245.491440 392.283447,250.175659 
	C392.123932,254.858200 389.570770,257.784241 385.107483,258.092072 
	C382.303741,258.285400 379.477997,258.159546 376.193665,258.176361 
z"/>
</svg>